<?xml version="1.0" encoding="UTF-8" standalone="no"?>
<!-- Generator: Adobe Illustrator 18.0.0, SVG Export Plug-In . SVG Version: 6.00 Build 0)  -->

<svg
   xmlns:dc="http://purl.org/dc/elements/1.1/"
   xmlns:cc="http://creativecommons.org/ns#"
   xmlns:rdf="http://www.w3.org/1999/02/22-rdf-syntax-ns#"
   xmlns:svg="http://www.w3.org/2000/svg"
   xmlns="http://www.w3.org/2000/svg"
   xmlns:sodipodi="http://sodipodi.sourceforge.net/DTD/sodipodi-0.dtd"
   xmlns:inkscape="http://www.inkscape.org/namespaces/inkscape"
   version="1.1"
   id="Capa_1"
   x="0px"
   y="0px"
   viewBox="0 0 380 380"
   style="enable-background:new 0 0 380 380;"
   xml:space="preserve"
   inkscape:version="0.48.5 r10040"
   width="100%"
   height="100%"
   sodipodi:docname="cancel48.svg"><metadata
   id="metadata3118"><rdf:RDF><cc:Work
       rdf:about=""><dc:format>image/svg+xml</dc:format><dc:type
         rdf:resource="http://purl.org/dc/dcmitype/StillImage" /></cc:Work></rdf:RDF></metadata><defs
   id="defs3116" /><sodipodi:namedview
   pagecolor="#ffffff"
   bordercolor="#666666"
   borderopacity="1"
   objecttolerance="10"
   gridtolerance="10"
   guidetolerance="10"
   inkscape:pageopacity="0"
   inkscape:pageshadow="2"
   inkscape:window-width="640"
   inkscape:window-height="480"
   id="namedview3114"
   showgrid="false"
   inkscape:zoom="0.62105263"
   inkscape:cx="190"
   inkscape:cy="190"
   inkscape:window-x="0"
   inkscape:window-y="0"
   inkscape:window-maximized="0"
   inkscape:current-layer="Capa_1" />
<path
   d="M190.001,0C85.233,0,0.001,85.233,0.001,190s85.231,190,189.999,190c104.767,0,189.998-85.233,189.998-190  S294.767,0,190.001,0z M190.001,64.225c23.047,0,44.662,6.237,63.258,17.103l-171.93,171.93  C70.462,234.663,64.225,213.047,64.225,190C64.225,120.647,120.649,64.225,190.001,64.225z M190.001,315.775  c-23.048,0-44.662-6.237-63.258-17.103l171.93-171.93c10.866,18.596,17.103,40.211,17.103,63.258  C315.776,259.353,259.352,315.775,190.001,315.775z"
   id="path3082"
   style="fill:#aa0000" />
<g
   id="g3084">
</g>
<g
   id="g3086">
</g>
<g
   id="g3088">
</g>
<g
   id="g3090">
</g>
<g
   id="g3092">
</g>
<g
   id="g3094">
</g>
<g
   id="g3096">
</g>
<g
   id="g3098">
</g>
<g
   id="g3100">
</g>
<g
   id="g3102">
</g>
<g
   id="g3104">
</g>
<g
   id="g3106">
</g>
<g
   id="g3108">
</g>
<g
   id="g3110">
</g>
<g
   id="g3112">
</g>
</svg>