<?xml version="1.0" encoding="UTF-8" standalone="no"?>
<!-- Generator: Adobe Illustrator 16.0.0, SVG Export Plug-In . SVG Version: 6.00 Build 0)  -->

<svg
   xmlns:dc="http://purl.org/dc/elements/1.1/"
   xmlns:cc="http://creativecommons.org/ns#"
   xmlns:rdf="http://www.w3.org/1999/02/22-rdf-syntax-ns#"
   xmlns:svg="http://www.w3.org/2000/svg"
   xmlns="http://www.w3.org/2000/svg"
   xmlns:sodipodi="http://sodipodi.sourceforge.net/DTD/sodipodi-0.dtd"
   xmlns:inkscape="http://www.inkscape.org/namespaces/inkscape"
   version="1.1"
   id="Capa_1"
   x="0px"
   y="0px"
   width="53.650661"
   height="39.999374"
   viewBox="0 0 53.650662 39.999374"
   xml:space="preserve"
   inkscape:version="0.48.5 r10040"
   sodipodi:docname="check.svg"><metadata
   id="metadata47"><rdf:RDF><cc:Work
       rdf:about=""><dc:format>image/svg+xml</dc:format><dc:type
         rdf:resource="http://purl.org/dc/dcmitype/StillImage" /></cc:Work></rdf:RDF></metadata><defs
   id="defs45" /><sodipodi:namedview
   pagecolor="#ffffff"
   bordercolor="#666666"
   borderopacity="1"
   objecttolerance="10"
   gridtolerance="10"
   guidetolerance="10"
   inkscape:pageopacity="0"
   inkscape:pageshadow="2"
   inkscape:window-width="1920"
   inkscape:window-height="1018"
   id="namedview43"
   showgrid="false"
   fit-margin-top="0"
   fit-margin-left="0"
   fit-margin-right="0"
   fit-margin-bottom="0"
   inkscape:zoom="5.1304348"
   inkscape:cx="-7.8695849"
   inkscape:cy="20.389515"
   inkscape:window-x="-8"
   inkscape:window-y="-8"
   inkscape:window-maximized="1"
   inkscape:current-layer="g5" />
<g
   id="g3"
   transform="translate(1.4863475,-3.3901437)">
	<g
   id="g5">
		
		<g
   id="g9">
			
		</g>
	<path
   inkscape:connector-curvature="0"
   d="m 22.797036,41.564873 c -1.167236,1.167235 -2.754215,1.824644 -4.404445,1.824644 -1.650229,0 -3.237209,-0.657409 -4.404444,-1.824644 L 0.33781724,27.914545 c -2.43221964,-2.43222 -2.43221964,-6.376671 0,-8.80889 2.43413616,-2.434137 6.37667006,-2.434137 8.81080606,0 l 8.1323157,8.130398 c 0.615241,0.613325 1.609979,0.613325 2.225221,0 L 41.526468,5.2157454 c 2.434136,-2.4341362 6.374753,-2.4341362 8.810806,0 2.436053,2.4341361 2.436053,6.3766696 0,8.8108066 L 22.797036,41.564873 z"
   id="path11"
   style="fill:#00aa00" /></g>
</g>
<g
   id="g13"
   transform="translate(1.4863475,-3.3901437)">
</g>
<g
   id="g15"
   transform="translate(1.4863475,-3.3901437)">
</g>
<g
   id="g17"
   transform="translate(1.4863475,-3.3901437)">
</g>
<g
   id="g19"
   transform="translate(1.4863475,-3.3901437)">
</g>
<g
   id="g21"
   transform="translate(1.4863475,-3.3901437)">
</g>
<g
   id="g23"
   transform="translate(1.4863475,-3.3901437)">
</g>
<g
   id="g25"
   transform="translate(1.4863475,-3.3901437)">
</g>
<g
   id="g27"
   transform="translate(1.4863475,-3.3901437)">
</g>
<g
   id="g29"
   transform="translate(1.4863475,-3.3901437)">
</g>
<g
   id="g31"
   transform="translate(1.4863475,-3.3901437)">
</g>
<g
   id="g33"
   transform="translate(1.4863475,-3.3901437)">
</g>
<g
   id="g35"
   transform="translate(1.4863475,-3.3901437)">
</g>
<g
   id="g37"
   transform="translate(1.4863475,-3.3901437)">
</g>
<g
   id="g39"
   transform="translate(1.4863475,-3.3901437)">
</g>
<g
   id="g41"
   transform="translate(1.4863475,-3.3901437)">
</g>
</svg>