<?xml version="1.0" encoding="UTF-8" standalone="no"?>
<!-- Created with Inkscape (http://www.inkscape.org/) -->

<svg
   xmlns:dc="http://purl.org/dc/elements/1.1/"
   xmlns:cc="http://creativecommons.org/ns#"
   xmlns:rdf="http://www.w3.org/1999/02/22-rdf-syntax-ns#"
   xmlns:svg="http://www.w3.org/2000/svg"
   xmlns="http://www.w3.org/2000/svg"
   xmlns:sodipodi="http://sodipodi.sourceforge.net/DTD/sodipodi-0.dtd"
   xmlns:inkscape="http://www.inkscape.org/namespaces/inkscape"
   width="20.860001"
   height="59.007"
   id="svg3069"
   version="1.1"
   inkscape:version="0.48.5 r10040"
   sodipodi:docname="New document 3">
  <defs
     id="defs3071" />
  <sodipodi:namedview
     id="base"
     pagecolor="#ffffff"
     bordercolor="#666666"
     borderopacity="1.0"
     inkscape:pageopacity="0.0"
     inkscape:pageshadow="2"
     inkscape:zoom="1.979899"
     inkscape:cx="135.91892"
     inkscape:cy="42.547899"
     inkscape:document-units="px"
     inkscape:current-layer="layer1"
     showgrid="false"
     fit-margin-top="0"
     fit-margin-left="0"
     fit-margin-right="0"
     fit-margin-bottom="0"
     inkscape:window-width="1024"
     inkscape:window-height="577"
     inkscape:window-x="-8"
     inkscape:window-y="-8"
     inkscape:window-maximized="1" />
  <metadata
     id="metadata3074">
    <rdf:RDF>
      <cc:Work
         rdf:about="">
        <dc:format>image/svg+xml</dc:format>
        <dc:type
           rdf:resource="http://purl.org/dc/dcmitype/StillImage" />
        <dc:title></dc:title>
      </cc:Work>
    </rdf:RDF>
  </metadata>
  <g
     inkscape:label="Layer 1"
     inkscape:groupmode="layer"
     id="layer1"
     transform="translate(744.71571,-445.71583)">
    <g
       id="g3097"
       transform="translate(-765.85571,443.71583)">
      <g
         id="imagenes">
</g>
      <g
         id="iconos">
	<path
   id="path3081"
   d="m 37,53.583 c 0.872,0 1.129,-1.583 0,-1.583 -1,0 -2.375,0.5 -3.188,2.062 -0.813,1.562 -1.938,2.125 -3.25,2.125 -1.312,0 -3.812,-0.625 -3.812,-3.75 0,-3.125 1.609,-4.188 3.164,-4.188 1.555,0 3.695,0.438 3.695,0.438 L 33.528,43 h -3.791 l 0.044,1.781 c -7.75,0 -8.641,5.047 -8.641,7.734 0,2.687 1.242,8.492 8.117,8.492 6.875,0 6.621,-6.598 6.621,-6.598 0,0 -0.17,-0.826 1.122,-0.826 z"
   inkscape:connector-curvature="0" />

	<polygon
   id="polygon3083"
   points="28,39 28,42 29.712,42 33.514,42 36,42 36,39 " />

	<rect
   id="rect3085"
   height="13"
   width="3"
   y="2"
   x="25" />

	<rect
   id="rect3087"
   height="13"
   width="3"
   y="2"
   x="37" />

	<path
   id="path3089"
   d="M 42,27.408 V 16 H 40 37 28 25 22 V 27.41 L 25.911,38 H 27 h 1 8 1 0.968 L 42,27.408 z m -9.93,-5.97 c 1.103,0 2,0.897 2,2 0,1.103 -0.897,2 -2,2 -1.103,0 -2,-0.897 -2,-2 0,-1.103 0.897,-2 2,-2 z"
   inkscape:connector-curvature="0" />

</g>
    </g>
  </g>
</svg>
