<?xml version="1.0" encoding="UTF-8" standalone="no"?>
<!-- Created with Inkscape (http://www.inkscape.org/) -->

<svg
   xmlns:dc="http://purl.org/dc/elements/1.1/"
   xmlns:cc="http://creativecommons.org/ns#"
   xmlns:rdf="http://www.w3.org/1999/02/22-rdf-syntax-ns#"
   xmlns:svg="http://www.w3.org/2000/svg"
   xmlns="http://www.w3.org/2000/svg"
   xmlns:sodipodi="http://sodipodi.sourceforge.net/DTD/sodipodi-0.dtd"
   xmlns:inkscape="http://www.inkscape.org/namespaces/inkscape"
   width="46.139999"
   height="47"
   id="svg2"
   version="1.1"
   inkscape:version="0.48.5 r10040"
   sodipodi:docname="light_on.svg">
  <defs
     id="defs4" />
  <sodipodi:namedview
     id="base"
     pagecolor="#ffffff"
     bordercolor="#666666"
     borderopacity="1.0"
     inkscape:pageopacity="0.0"
     inkscape:pageshadow="2"
     inkscape:zoom="11.2"
     inkscape:cx="1.7428726"
     inkscape:cy="29.707611"
     inkscape:document-units="px"
     inkscape:current-layer="g3111"
     showgrid="false"
     fit-margin-top="0"
     fit-margin-left="0"
     fit-margin-right="0"
     fit-margin-bottom="0"
     inkscape:window-width="1920"
     inkscape:window-height="1018"
     inkscape:window-x="-8"
     inkscape:window-y="-8"
     inkscape:window-maximized="1" />
  <metadata
     id="metadata7">
    <rdf:RDF>
      <cc:Work
         rdf:about="">
        <dc:format>image/svg+xml</dc:format>
        <dc:type
           rdf:resource="http://purl.org/dc/dcmitype/StillImage" />
        <dc:title></dc:title>
      </cc:Work>
    </rdf:RDF>
  </metadata>
  <g
     inkscape:label="Off"
     inkscape:groupmode="layer"
     id="layer1"
     transform="translate(-459.78714,-420.29075)"
     style="display:inline">
    <g
       id="g2995"
       transform="translate(457.85714,418.79075)">
      <path
         id="path2997"
         d="m 25,12.949 c -6.385,0 -11.563,4.959 -11.563,11.077 0,7.265 5.045,9.116 5.045,13.344 0,1.045 0.799,2.017 1.999,2.732 -0.251,0.208 -0.391,0.437 -0.391,0.677 0,0.322 0.253,0.623 0.688,0.881 -0.408,0.253 -0.645,0.544 -0.645,0.856 0,0.314 0.242,0.608 0.659,0.863 -0.426,0.256 -0.674,0.554 -0.674,0.872 0,0.387 0.366,0.743 0.978,1.032 -0.237,0.215 -0.373,0.453 -0.373,0.704 0,0.739 1.153,1.369 2.774,1.62 0.285,0.527 0.863,0.893 1.537,0.893 0.673,0 1.25,-0.363 1.535,-0.889 1.636,-0.248 2.802,-0.88 2.802,-1.623 0,-0.247 -0.13,-0.482 -0.362,-0.694 0.624,-0.291 0.998,-0.651 0.998,-1.042 0,-0.315 -0.242,-0.61 -0.66,-0.864 0.425,-0.256 0.674,-0.553 0.674,-0.871 0,-0.322 -0.254,-0.623 -0.689,-0.881 0.41,-0.252 0.646,-0.544 0.646,-0.856 0,-0.249 -0.152,-0.484 -0.421,-0.698 1.181,-0.713 1.966,-1.675 1.966,-2.711 0,-4.228 5.039,-6.08 5.039,-13.344 C 36.563,17.908 31.386,12.949 25,12.949 z m 6.038,17.932 c -1.153,1.692 -2.456,3.603 -2.536,6.232 -0.395,0.442 -1.808,1.159 -3.498,1.159 -1.691,0 -3.105,-0.718 -3.5,-1.16 -0.08,-2.63 -1.385,-4.541 -2.539,-6.233 -1.287,-1.886 -2.502,-3.667 -2.502,-6.854 0,-4.439 3.83,-8.051 8.537,-8.051 4.707,0 8.537,3.612 8.537,8.051 0,3.188 -1.214,4.97 -2.499,6.856 z"
         inkscape:connector-curvature="0" />
    </g>
  </g>
  <g
     style="display:none"
     transform="translate(-459.78714,-420.29075)"
     id="g3109"
     inkscape:groupmode="layer"
     inkscape:label="On">
    <g
       transform="translate(457.85714,418.79075)"
       id="g3111">
      <path
         inkscape:connector-curvature="0"
         d="m 25,12.949 c -6.385,0 -11.563,4.959 -11.563,11.077 0,7.265 5.045,9.116 5.045,13.344 0,1.045 0.799,2.017 1.999,2.732 -0.251,0.208 -0.391,0.437 -0.391,0.677 0,0.322 0.253,0.623 0.688,0.881 -0.408,0.253 -0.645,0.544 -0.645,0.856 0,0.314 0.242,0.608 0.659,0.863 -0.426,0.256 -0.674,0.554 -0.674,0.872 0,0.387 0.366,0.743 0.978,1.032 -0.237,0.215 -0.373,0.453 -0.373,0.704 0,0.739 1.153,1.369 2.774,1.62 0.285,0.527 0.863,0.893 1.537,0.893 0.673,0 1.25,-0.363 1.535,-0.889 1.636,-0.248 2.802,-0.88 2.802,-1.623 0,-0.247 -0.13,-0.482 -0.362,-0.694 0.624,-0.291 0.998,-0.651 0.998,-1.042 0,-0.315 -0.242,-0.61 -0.66,-0.864 0.425,-0.256 0.674,-0.553 0.674,-0.871 0,-0.322 -0.254,-0.623 -0.689,-0.881 0.41,-0.252 0.646,-0.544 0.646,-0.856 0,-0.249 -0.152,-0.484 -0.421,-0.698 1.181,-0.713 1.966,-1.675 1.966,-2.711 0,-4.228 5.039,-6.08 5.039,-13.344 C 36.563,17.908 31.386,12.949 25,12.949 z m 6.038,17.932 c -1.153,1.692 -2.456,3.603 -2.536,6.232 -0.395,0.442 -1.808,1.159 -3.498,1.159 -1.691,0 -3.105,-0.718 -3.5,-1.16 -0.08,-2.63 -1.385,-4.541 -2.539,-6.233 -1.287,-1.886 -2.502,-3.667 -2.502,-6.854 0,-4.439 3.83,-8.051 8.537,-8.051 4.707,0 8.537,3.612 8.537,8.051 0,3.188 -1.214,4.97 -2.499,6.856 z"
         id="path3113" />
      <path
         inkscape:connector-curvature="0"
         d="m 25,9.064 c 0.832,0 1.513,-0.9 1.513,-2 V 3.5 c 0,-1.1 -0.681,-2 -1.513,-2 -0.832,0 -1.513,0.9 -1.513,2 v 3.564 c 0,1.101 0.681,2 1.513,2 z"
         id="path3115"
         style="fill:#d4aa00" />
      <path
         inkscape:connector-curvature="0"
         d="m 17.247,11.142 c 0.721,-0.416 0.859,-1.536 0.31,-2.488 L 15.776,5.567 c -0.55,-0.953 -1.59,-1.392 -2.311,-0.976 -0.721,0.416 -0.86,1.536 -0.311,2.488 l 1.783,3.087 c 0.55,0.953 1.589,1.392 2.31,0.976 z"
         id="path3117"
         style="fill:#d4aa00" />
      <path
         inkscape:connector-curvature="0"
         d="M 10.595,14.507 7.51,12.725 c -0.953,-0.55 -2.073,-0.411 -2.489,0.31 -0.416,0.721 0.022,1.76 0.976,2.31 l 3.086,1.782 c 0.953,0.55 2.073,0.411 2.488,-0.31 0.415,-0.721 -0.023,-1.76 -0.976,-2.31 z"
         id="path3119"
         style="fill:#d4aa00" />
      <path
         inkscape:connector-curvature="0"
         d="m 44.004,33.795 -3.086,-1.782 c -0.953,-0.55 -2.073,-0.411 -2.488,0.31 -0.416,0.721 0.022,1.76 0.976,2.31 l 3.085,1.782 c 0.953,0.55 2.073,0.411 2.489,-0.31 0.416,-0.721 -0.023,-1.76 -0.976,-2.31 z"
         id="path3121"
         style="fill:#d4aa00" />
      <path
         inkscape:connector-curvature="0"
         d="m 9.494,24.57 c 0,-0.833 -0.9,-1.513 -2,-1.513 H 3.93 c -1.1,0 -2,0.681 -2,1.513 0,0.832 0.9,1.513 2,1.513 h 3.564 c 1.1,0 2,-0.681 2,-1.513 z"
         id="path3123"
         style="fill:#d4aa00" />
      <path
         inkscape:connector-curvature="0"
         d="m 46.07,23.057 h -3.564 c -1.1,0 -2,0.681 -2,1.513 0,0.832 0.9,1.513 2,1.513 h 3.564 c 1.1,0 2,-0.681 2,-1.513 0,-0.832 -0.9,-1.513 -2,-1.513 z"
         id="path3125"
         style="fill:#d4aa00" />
      <path
         inkscape:connector-curvature="0"
         d="m 9.082,32.013 -3.086,1.782 c -0.953,0.55 -1.392,1.589 -0.976,2.31 0.416,0.721 1.536,0.86 2.489,0.31 l 3.085,-1.782 c 0.953,-0.55 1.392,-1.589 0.976,-2.31 -0.415,-0.72 -1.535,-0.86 -2.488,-0.31 z"
         id="path3127"
         style="fill:#d4aa00" />
      <path
         inkscape:connector-curvature="0"
         d="m 40.918,17.127 3.086,-1.782 c 0.953,-0.55 1.392,-1.589 0.976,-2.31 -0.416,-0.721 -1.536,-0.86 -2.489,-0.31 l -3.085,1.782 c -0.953,0.55 -1.392,1.589 -0.976,2.31 0.415,0.721 1.535,0.86 2.488,0.31 z"
         id="path3129"
         style="fill:#d4aa00" />
      <path
         inkscape:connector-curvature="0"
         d="M 36.535,4.59 C 35.814,4.174 34.774,4.613 34.224,5.566 l -1.781,3.087 c -0.55,0.953 -0.411,2.072 0.31,2.488 0.721,0.416 1.76,-0.023 2.31,-0.976 l 1.783,-3.087 c 0.55,-0.952 0.41,-2.072 -0.311,-2.488 z"
         id="path3131"
         style="fill:#d4aa00" />
      <path
         style="fill:#d4aa00"
         d="M 21.50734,36.508332 C 20.853331,36.336874 20.145785,36.010886 19.81496,35.728601 19.669211,35.604238 19.605152,35.38842 19.523694,34.747314 19.319156,33.137536 18.736548,31.8553 17.045207,29.292521 c -1.52599,-2.312232 -2.026504,-3.39918 -2.311833,-5.020515 -0.483395,-2.74682 0.286149,-5.296363 2.174196,-7.203228 1.047087,-1.057523 2.246619,-1.753797 3.827795,-2.221862 1.120013,-0.331549 2.850316,-0.394222 4.044413,-0.146491 2.692376,0.558569 4.917786,2.255878 6.030869,4.599714 0.892969,1.880342 0.977179,4.232758 0.230078,6.427294 -0.345767,1.015656 -0.727066,1.711418 -2.046041,3.733443 -0.595394,0.912758 -1.262814,2.017668 -1.483154,2.455358 -0.47251,0.938606 -0.83561,2.131414 -0.917705,3.014724 -0.04492,0.483359 -0.102966,0.671409 -0.245086,0.794052 -0.287293,0.247919 -1.287717,0.689201 -1.882652,0.830428 -0.759146,0.180207 -2.177837,0.157621 -2.958747,-0.04711 z"
         id="path3133"
         inkscape:connector-curvature="0"
         transform="translate(1.93,1.5)" />
    </g>
  </g>
</svg>
