<?xml version="1.0" encoding="UTF-8" standalone="no"?>
<!-- Created with Inkscape (http://www.inkscape.org/) -->

<svg
   xmlns:dc="http://purl.org/dc/elements/1.1/"
   xmlns:cc="http://creativecommons.org/ns#"
   xmlns:rdf="http://www.w3.org/1999/02/22-rdf-syntax-ns#"
   xmlns:svg="http://www.w3.org/2000/svg"
   xmlns="http://www.w3.org/2000/svg"
   xmlns:sodipodi="http://sodipodi.sourceforge.net/DTD/sodipodi-0.dtd"
   xmlns:inkscape="http://www.inkscape.org/namespaces/inkscape"
   width="33.938374"
   height="30.083286"
   id="svg3177"
   version="1.1"
   inkscape:version="0.48.5 r10040"
   sodipodi:docname="New document 5">
  <defs
     id="defs3179" />
  <sodipodi:namedview
     id="base"
     pagecolor="#ffffff"
     bordercolor="#666666"
     borderopacity="1.0"
     inkscape:pageopacity="0.0"
     inkscape:pageshadow="2"
     inkscape:zoom="3.959798"
     inkscape:cx="73.419771"
     inkscape:cy="31.663253"
     inkscape:document-units="px"
     inkscape:current-layer="g3275"
     showgrid="false"
     fit-margin-top="0"
     fit-margin-left="0"
     fit-margin-right="0"
     fit-margin-bottom="0"
     inkscape:window-width="1024"
     inkscape:window-height="577"
     inkscape:window-x="-8"
     inkscape:window-y="-8"
     inkscape:window-maximized="1" />
  <metadata
     id="metadata3182">
    <rdf:RDF>
      <cc:Work
         rdf:about="">
        <dc:format>image/svg+xml</dc:format>
        <dc:type
           rdf:resource="http://purl.org/dc/dcmitype/StillImage" />
        <dc:title></dc:title>
      </cc:Work>
    </rdf:RDF>
  </metadata>
  <g
     inkscape:label="Layer 1"
     inkscape:groupmode="layer"
     id="layer1"
     transform="translate(-290.07687,-260.17768)">
    <g
       style="display:inline"
       id="g3115"
       transform="translate(273.16256,244.49497)">
      <path
         id="path3117"
         d="m 18.803315,42.026 5.042143,0 0.118,-10.499429 c -0.763,-0.428 -1.283,-1.235 -1.283,-2.171 0,-1.38 1.119,-2.5 2.5,-2.5 0.182,0 0.358,0.022 0.529,0.059 l 7.286857,-7.807857 c -0.114,-0.287 -0.182,-0.597 -0.182,-0.924 0,-1.38 1.119,-2.5 2.5,-2.5 1.025,0 1.904,0.619 2.29,1.502 l 9.378,0 c -0.122194,0 0.08392,1.995 -0.213,1.995 l -9.164,0 c -0.386,0.884 -1.265,1.502 -2.29,1.502 -0.318,0 -0.621,-0.065 -0.9,-0.174 l -7.079857,7.600857 c 0.214,0.368 0.345,0.791 0.345,1.247 0,1.107 -0.725,2.035 -1.722,2.364 l -0.118,10.307429 0.042,0 6.320357,0 c 1.043,0 1.889,0.826 1.889,1.869 0,1.044 -0.846,1.87 -1.889,1.87 l -13.3985,0 c -1.043,0 -1.89,-0.826 -1.89,-1.87 0,-1.044 0.847,-1.87 1.889,-1.87 z"
         inkscape:connector-curvature="0"
         sodipodi:nodetypes="sccssccsscsscsccscccssssss" />
    </g>
    <g
       id="g3275"
       transform="matrix(0.1,0,0,0.1,336.4527,258.95906)">
      <g
         style="display:inline"
         transform="translate(-123.69083,-127.21619)"
         id="layer1-4"
         inkscape:label="Normal">
        <path
           sodipodi:nodetypes="ccssscssssssssccsssss"
           inkscape:connector-curvature="0"
           d="m -21.145252,215.26896 0,-31.2647 c 8.09967,-2.72452 13.9725001,-10.29348 13.9725001,-19.31138 0,-11.30048 -9.1607801,-20.46125 -20.4612501,-20.46125 -11.30015,0 -20.46125,9.16077 -20.46125,20.46125 0,9.0166 5.87088,16.58492 13.96861,19.3104 l 0,36.96614 c 0,3.58344 2.90726,6.49069 6.4907,6.49069 7.70342,0 13.97023,6.26681 13.97023,13.97023 0,7.70341 -6.26681,13.97021 -13.97023,13.97021 -7.70343,0 -13.97024,-6.2668 -13.97024,-13.97021 0,-3.58344 -2.90725,-6.49069 -6.49069,-6.49069 -3.58344,0 -6.49069,2.90725 -6.49069,6.49069 0,14.86186 12.09006,26.95192 26.95194,26.95192 14.86188,0 26.95194013,-12.09006 26.95194013,-26.95192 -3.2e-4,-12.62628 -8.72662003,-23.24959 -20.46157013,-26.16138 z m -16.71937,-50.57608 c 0,-5.65023 4.58071,-10.23062 10.23062,-10.23062 5.65024,0 10.23062,4.58039 10.23062,10.23062 0,5.65024 -4.58038,10.23095 -10.23062,10.23095 -5.64991,0 -10.23062,-4.58071 -10.23062,-10.23095 z"
           id="path3473" />
      </g>
      <path
         id="path3517"
         d="m -144.83608,88.052765 0,-31.264708 c 8.09968,-2.724516 13.9725,-10.293481 13.9725,-19.311372 0,-11.300472 -9.16078,-20.461248 -20.46125,-20.461248 -11.30015,0 -20.46125,9.160776 -20.46125,20.461248 0,9.016595 5.87088,16.584912 13.96862,19.3104 l 0,36.966136 c 0,3.58344 2.90725,6.490689 6.49069,6.490689 7.70342,0 13.97023,6.26681 13.97023,13.97023 0,7.70341 -6.26681,13.97022 -13.97023,13.97022 -7.70343,0 -13.97023,-6.26681 -13.97023,-13.97022 0,-3.58344 -2.90726,-6.49069 -6.4907,-6.49069 -3.58344,0 -6.49069,2.90725 -6.49069,6.49069 0,14.86187 12.09006,26.95193 26.95194,26.95193 14.86188,0 26.95194,-12.09006 26.95194,-26.95193 -3.2e-4,-12.62628 -8.72661,-23.249587 -20.46157,-26.161375 z"
         inkscape:connector-curvature="0"
         sodipodi:nodetypes="ccssscsssssssscc" />
      <g
         style="display:none"
         inkscape:label="Warning Red"
         id="g3505"
         transform="translate(-123.69083,-127.21619)">
        <path
           style="fill:#ff0000"
           id="path3507"
           d="m 333.83612,375.94954 -92.34478,-173.03 c -2.30263,-4.32575 -6.81472,-7.04099 -11.72611,-7.04099 h -0.0133 c -4.91139,0 -9.41017,2.70193 -11.72611,7.02768 l -92.75739,173.03 c -2.20946,4.13941 -2.08967,9.11735 0.30613,13.12366 2.40911,3.993 6.74817,6.46866 11.41998,6.46866 H 322.0834 c 4.67181,0 9.01087,-2.44904 11.41998,-6.46866 2.40911,-4.00631 2.5289,-8.98425 0.33275,-13.11035 z m -104.0842,-7.04099 c -7.34712,0 -13.31,-5.96288 -13.31,-13.31 0,-7.34712 5.96288,-13.31 13.31,-13.31 7.33381,0 13.31,5.96288 13.31,13.31 0,7.34712 -5.97619,13.31 -13.31,13.31 z m 13.31,-53.02704 c 0,7.36043 -5.97619,13.31 -13.31,13.31 -7.34712,0 -13.31,-5.94957 -13.31,-13.31 v -53.24 c 0,-7.34712 5.96288,-13.31 13.31,-13.31 7.33381,0 13.31,5.96288 13.31,13.31 v 53.24 z"
           inkscape:connector-curvature="0" />
        <path
           id="path3509"
           d="m 465.61067,346.46746 0,-96.496 c 24.999,-8.409 43.125,-31.77 43.125,-59.603 0,-34.878 -28.274,-63.152 -63.152,-63.152 -34.877,0 -63.152,28.274 -63.152,63.152 0,27.829 18.12,51.188 43.113,59.6 l 0,114.093 c 0,11.06 8.973,20.033 20.033,20.033 23.776,0 43.118,19.342 43.118,43.118 0,23.77596 -19.342,43.11796 -43.118,43.11796 -23.776,0 -43.118,-19.342 -43.118,-43.11796 0,-11.06 -8.973,-20.033 -20.033,-20.033 -11.06,0 -20.033,8.973 -20.033,20.033 0,45.86996 37.315,83.18496 83.185,83.18496 45.87,0 83.185,-37.315 83.185,-83.18496 -0.001,-38.97 -26.934,-71.758 -63.153,-80.745 z m -51.603,-156.099 c 0,-17.439 14.138,-31.576 31.576,-31.576 17.439,0 31.576,14.137 31.576,31.576 0,17.439 -14.137,31.577 -31.576,31.577 -17.438,0 -31.576,-14.138 -31.576,-31.577 z"
           inkscape:connector-curvature="0"
           sodipodi:nodetypes="ccssscssssssssccsssss" />
        <rect
           style="fill:#000000"
           id="rect3511"
           width="310.71396"
           height="31.443001"
           x="135.03572"
           y="127.21619" />
      </g>
    </g>
  </g>
</svg>
