<?xml version="1.0" encoding="UTF-8" standalone="no"?>
<!-- Created with Inkscape (http://www.inkscape.org/) -->

<svg
   xmlns:dc="http://purl.org/dc/elements/1.1/"
   xmlns:cc="http://creativecommons.org/ns#"
   xmlns:rdf="http://www.w3.org/1999/02/22-rdf-syntax-ns#"
   xmlns:svg="http://www.w3.org/2000/svg"
   xmlns="http://www.w3.org/2000/svg"
   xmlns:sodipodi="http://sodipodi.sourceforge.net/DTD/sodipodi-0.dtd"
   xmlns:inkscape="http://www.inkscape.org/namespaces/inkscape"
   width="144.25027"
   height="150"
   id="svg2"
   version="1.1"
   inkscape:version="0.48.5 r10040"
   sodipodi:docname="power_red.svg">
  <defs
     id="defs4" />
  <sodipodi:namedview
     id="base"
     pagecolor="#ffffff"
     bordercolor="#666666"
     borderopacity="1.0"
     inkscape:pageopacity="0.0"
     inkscape:pageshadow="2"
     inkscape:document-units="px"
     inkscape:current-layer="layer1"
     showgrid="false"
     inkscape:window-maximized="1"
     inkscape:zoom="1.979899"
     inkscape:cx="327.97554"
     inkscape:cy="53.713534"
     inkscape:window-width="1920"
     inkscape:window-height="1018"
     inkscape:window-x="-8"
     inkscape:window-y="-8"
     fit-margin-top="0"
     fit-margin-left="0"
     fit-margin-right="0"
     fit-margin-bottom="0" />
  <g
     inkscape:label="Layer 1"
     inkscape:groupmode="layer"
     id="layer1"
     transform="translate(1.6057e-6,-902.36214)">
    <g
       id="g2996"
       transform="matrix(2.9653059,0,0,2.9653059,-22.764655,882.47383)"
       style="fill:#00ff00">
      <path
         id="path2986"
         d="m 7.677,34.141 c 0,-7.411 3.748,-13.861 9.372,-18.062 1.327,-0.991 3.986,-1.432 5.055,-0.165 0.662,0.783 0.899,1.726 0.926,2.621 0.051,1.656 -1.665,3.672 -2.846,4.833 -2.821,2.776 -4.599,6.54 -4.599,10.795 0,8.902 7.216,15.65 16.117,15.65 8.904,0 16.122,-6.748 16.122,-15.65 0,-4.537 -1.732,-8.52 -4.609,-11.338 -1.183,-1.159 -2.788,-3.208 -2.53,-4.845 0.148,-0.945 0.557,-1.881 1.45,-2.555 1.322,-0.998 3.97,-0.285 5.277,0.732 5.398,4.201 8.911,10.621 8.911,17.983 0,13.045 -11.568,23.152 -24.618,23.152 C 18.661,57.293 7.677,47.186 7.677,34.141 z"
         clip-rule="evenodd"
         inkscape:connector-curvature="0"
         style="fill:#00ff00;fill-rule:evenodd" />
      <path
         id="path2988"
         d="m 32.175,36.582 c -1.628,0 -3.89,-1.908 -3.89,-3.535 V 10.363 c 0,-0.228 0.038,-3.656 3.774,-3.656 1.628,0 3.771,0.855 3.771,3.656 v 22.684 c 0.001,1.627 -2.021,3.535 -3.655,3.535 z"
         clip-rule="evenodd"
         inkscape:connector-curvature="0"
         style="fill:#00ff00;fill-rule:evenodd" />
    </g>
  </g>
  <metadata
     id="metadata3000">
    <rdf:RDF>
      <cc:Work
         rdf:about="">
        <dc:title></dc:title>
      </cc:Work>
    </rdf:RDF>
  </metadata>
</svg>
