<?xml version="1.0" encoding="UTF-8" standalone="no"?>
<!-- Created with Inkscape (http://www.inkscape.org/) -->

<svg
   xmlns:dc="http://purl.org/dc/elements/1.1/"
   xmlns:cc="http://creativecommons.org/ns#"
   xmlns:rdf="http://www.w3.org/1999/02/22-rdf-syntax-ns#"
   xmlns:svg="http://www.w3.org/2000/svg"
   xmlns="http://www.w3.org/2000/svg"
   xmlns:sodipodi="http://sodipodi.sourceforge.net/DTD/sodipodi-0.dtd"
   xmlns:inkscape="http://www.inkscape.org/namespaces/inkscape"
   width="51.219086"
   height="40.620827"
   id="svg3017"
   version="1.1"
   inkscape:version="0.48.5 r10040"
   sodipodi:docname="left_crutch_off.svg">
  <defs
     id="defs3019">
	
	
</defs>
  <sodipodi:namedview
     id="base"
     pagecolor="#ffffff"
     bordercolor="#666666"
     borderopacity="1.0"
     inkscape:pageopacity="0.0"
     inkscape:pageshadow="2"
     inkscape:zoom="2"
     inkscape:cx="134.62918"
     inkscape:cy="11.925965"
     inkscape:document-units="px"
     inkscape:current-layer="g3059"
     showgrid="false"
     fit-margin-top="0"
     fit-margin-left="0"
     fit-margin-right="0"
     fit-margin-bottom="0"
     inkscape:window-width="1024"
     inkscape:window-height="577"
     inkscape:window-x="-8"
     inkscape:window-y="-8"
     inkscape:window-maximized="1" />
  <metadata
     id="metadata3022">
    <rdf:RDF>
      <cc:Work
         rdf:about="">
        <dc:format>image/svg+xml</dc:format>
        <dc:type
           rdf:resource="http://purl.org/dc/dcmitype/StillImage" />
        <dc:title></dc:title>
      </cc:Work>
    </rdf:RDF>
  </metadata>
  <g
     transform="translate(-43.207766,-628.26221)"
     id="g3059"
     inkscape:groupmode="layer"
     inkscape:label="Right Сrutch Off"
     style="display:none">
    <rect
       y="628.26221"
       x="-94.416367"
       height="4"
       width="51.208603"
       id="rect3061"
       style="fill:#000000"
       transform="scale(-1,1)" />
    <polygon
       transform="matrix(0,-1,-1,0,94.426853,660.29583)"
       id="polygon3063"
       points="12,28 12,24 8,24 8,32 32,32 32,0 8,0 8,8 12,8 12,4 28,4 28,28 " />
  </g>
  <g
     inkscape:label="Right Сrutch On"
     inkscape:groupmode="layer"
     id="layer1"
     transform="translate(-43.207766,-628.26221)"
     style="display:inline">
    <rect
       style="fill:#000000"
       id="rect3057"
       width="51.208603"
       height="4"
       x="-94.416367"
       y="628.26221"
       transform="scale(-1,1)" />
    <polygon
       points="8,24 8,32 32,32 32,0 8,0 8,8 12,8 12,4 28,4 28,28 12,28 12,24 "
       id="polygon3038"
       transform="matrix(0,-1,-1,0,94.426853,660.29583)" />
    <rect
       style="fill:#000000"
       id="rect3053"
       width="6.0609155"
       height="32.55883"
       x="-81.387962"
       y="636.32416"
       transform="scale(-1,1)" />
    <rect
       style="fill:#000000"
       id="rect3055"
       width="25.380083"
       height="7.6363897"
       x="-91.047546"
       y="661.24664"
       transform="scale(-1,1)" />
  </g>
</svg>
