<?xml version="1.0" encoding="UTF-8" standalone="no"?>
<!-- Generator: Adobe Illustrator 16.0.0, SVG Export Plug-In . SVG Version: 6.00 Build 0)  -->

<svg
   xmlns:dc="http://purl.org/dc/elements/1.1/"
   xmlns:cc="http://creativecommons.org/ns#"
   xmlns:rdf="http://www.w3.org/1999/02/22-rdf-syntax-ns#"
   xmlns:svg="http://www.w3.org/2000/svg"
   xmlns="http://www.w3.org/2000/svg"
   xmlns:sodipodi="http://sodipodi.sourceforge.net/DTD/sodipodi-0.dtd"
   xmlns:inkscape="http://www.inkscape.org/namespaces/inkscape"
   version="1.1"
   x="0px"
   y="0px"
   width="27.972px"
   height="26.324px"
   viewBox="0 0 27.972 26.324"
   style="enable-background:new 0 0 27.972 26.324;"
   xml:space="preserve"
   id="svg3150"
   inkscape:version="0.48.5 r10040"
   sodipodi:docname="rotate_up.svg"><metadata
   id="metadata3160"><rdf:RDF><cc:Work
       rdf:about=""><dc:format>image/svg+xml</dc:format><dc:type
         rdf:resource="http://purl.org/dc/dcmitype/StillImage" /><dc:title></dc:title></cc:Work></rdf:RDF></metadata><defs
   id="defs3158" /><sodipodi:namedview
   pagecolor="#ffffff"
   bordercolor="#666666"
   borderopacity="1"
   objecttolerance="10"
   gridtolerance="10"
   guidetolerance="10"
   inkscape:pageopacity="0"
   inkscape:pageshadow="2"
   inkscape:window-width="1920"
   inkscape:window-height="1018"
   id="namedview3156"
   showgrid="false"
   inkscape:zoom="8.9652031"
   inkscape:cx="13.794294"
   inkscape:cy="13.321708"
   inkscape:window-x="-8"
   inkscape:window-y="-8"
   inkscape:window-maximized="1"
   inkscape:current-layer="svg3150" />
<g
   id="c189_arrow"
   transform="matrix(1,0,0,-1,-6.3614616e-8,26.323)">
	<path
   style="fill:#000000"
   d="M 23.92,13.922 19.87,9.871 h 2.374 L 22.176,9.694 c -1.407,-3.561 -4.882,-6.088 -8.95,-6.088 -5.312,0 -9.62,4.307 -9.62,9.616 0,5.316 4.308,9.623 9.62,9.623 3.907,0 7.271,-2.128 8.775,-5.479 l 3.854,0.039 c -0.013,0.03 -3.032,8.918 -12.693,8.918 C 5.893,26.324 0,20.43 0,13.163 0,5.891 5.893,0 13.161,0 19.241,0 24.356,4.116 25.87,9.715 l 0.032,0.156 h 2.069 l -4.051,4.051 z"
   id="path3153"
   inkscape:connector-curvature="0" />
</g>
<g
   id="Capa_1"
   transform="matrix(1,0,0,-1,-27.971,52.648)">
</g>
</svg>