<?xml version="1.0" encoding="UTF-8" standalone="no"?>
<!-- Generator: Adobe Illustrator 16.0.0, SVG Export Plug-In . SVG Version: 6.00 Build 0)  -->

<svg
   xmlns:dc="http://purl.org/dc/elements/1.1/"
   xmlns:cc="http://creativecommons.org/ns#"
   xmlns:rdf="http://www.w3.org/1999/02/22-rdf-syntax-ns#"
   xmlns:svg="http://www.w3.org/2000/svg"
   xmlns="http://www.w3.org/2000/svg"
   xmlns:sodipodi="http://sodipodi.sourceforge.net/DTD/sodipodi-0.dtd"
   xmlns:inkscape="http://www.inkscape.org/namespaces/inkscape"
   version="1.1"
   x="0px"
   y="0px"
   width="27.972px"
   height="26.324px"
   viewBox="0 0 27.972 26.324"
   style="enable-background:new 0 0 27.972 26.324;"
   xml:space="preserve"
   id="svg3150"
   inkscape:version="0.48.5 r10040"
   sodipodi:docname="rotate.svg"><metadata
   id="metadata3160"><rdf:RDF><cc:Work
       rdf:about=""><dc:format>image/svg+xml</dc:format><dc:type
         rdf:resource="http://purl.org/dc/dcmitype/StillImage" /><dc:title></dc:title></cc:Work></rdf:RDF></metadata><defs
   id="defs3158" /><sodipodi:namedview
   pagecolor="#ffffff"
   bordercolor="#666666"
   borderopacity="1"
   objecttolerance="10"
   gridtolerance="10"
   guidetolerance="10"
   inkscape:pageopacity="0"
   inkscape:pageshadow="2"
   inkscape:window-width="1920"
   inkscape:window-height="1018"
   id="namedview3156"
   showgrid="false"
   inkscape:zoom="8.9652031"
   inkscape:cx="13.794294"
   inkscape:cy="13.321708"
   inkscape:window-x="-8"
   inkscape:window-y="-8"
   inkscape:window-maximized="1"
   inkscape:current-layer="svg3150" />
<g
   id="c189_arrow">
	<path
   style="fill:#000000;"
   d="M23.92,13.922l-4.05-4.051h2.374l-0.068-0.177c-1.407-3.561-4.882-6.088-8.95-6.088   c-5.312,0-9.62,4.307-9.62,9.616c0,5.316,4.308,9.623,9.62,9.623c3.907,0,7.271-2.128,8.775-5.479l3.854,0.039   c-0.013,0.03-3.032,8.918-12.693,8.918C5.893,26.324,0,20.43,0,13.163C0,5.891,5.893,0,13.161,0c6.08,0,11.195,4.116,12.709,9.715   l0.032,0.156h2.069L23.92,13.922z"
   id="path3153" />
</g>
<g
   id="Capa_1">
</g>
</svg>