<?xml version="1.0" encoding="UTF-8" standalone="no"?>
<!-- Created with Inkscape (http://www.inkscape.org/) -->

<svg
   xmlns:dc="http://purl.org/dc/elements/1.1/"
   xmlns:cc="http://creativecommons.org/ns#"
   xmlns:rdf="http://www.w3.org/1999/02/22-rdf-syntax-ns#"
   xmlns:svg="http://www.w3.org/2000/svg"
   xmlns="http://www.w3.org/2000/svg"
   xmlns:sodipodi="http://sodipodi.sourceforge.net/DTD/sodipodi-0.dtd"
   xmlns:inkscape="http://www.inkscape.org/namespaces/inkscape"
   width="112.36602"
   height="68.04155"
   id="svg2"
   version="1.1"
   inkscape:version="0.48.5 r10040"
   sodipodi:docname="sound_signal_off.svg">
  <defs
     id="defs4" />
  <sodipodi:namedview
     id="base"
     pagecolor="#ffffff"
     bordercolor="#666666"
     borderopacity="1.0"
     inkscape:pageopacity="0.0"
     inkscape:pageshadow="2"
     inkscape:zoom="1.979899"
     inkscape:cx="31.692991"
     inkscape:cy="44.848306"
     inkscape:document-units="px"
     inkscape:current-layer="layer1"
     showgrid="false"
     fit-margin-top="0"
     fit-margin-left="0"
     fit-margin-right="0"
     fit-margin-bottom="0"
     inkscape:window-width="1920"
     inkscape:window-height="1018"
     inkscape:window-x="-8"
     inkscape:window-y="-8"
     inkscape:window-maximized="1" />
  <metadata
     id="metadata7">
    <rdf:RDF>
      <cc:Work
         rdf:about="">
        <dc:format>image/svg+xml</dc:format>
        <dc:type
           rdf:resource="http://purl.org/dc/dcmitype/StillImage" />
        <dc:title></dc:title>
      </cc:Work>
    </rdf:RDF>
  </metadata>
  <g
     inkscape:label="Layer 1"
     inkscape:groupmode="layer"
     id="layer1"
     transform="translate(-38.843232,-47.977668)">
    <g
       id="g3330">
      <path
         style="fill:#ff6600"
         inkscape:connector-curvature="0"
         d="m 132.15541,49.753218 v 53.200002 c 0,1.4 -1.55548,2.333 -2.33281,1.4 0,0 -9.33121,-21.000002 -20.99524,-21.000002 -11.664019,0 -36.935787,0 -36.935787,0 -5.443766,0 -9.720297,5.133 -9.720297,11.666 0,6.533002 4.276531,11.666002 9.720297,11.666002 h 20.217914 c 5.053854,0 8.941303,-4.666 8.941303,-10.731002 v -7.935 h 7.3875 v 7.935 c 0,11.198002 -7.3875,20.065002 -16.717881,20.065002 H 73.44622 c -10.49762,0 -19.051514,-10.267 -19.051514,-23.334002 v -0.465 c 0,-12.601 8.554727,-22.867 19.051514,-22.867 0,0 23.717121,0 35.38114,0 11.66403,0 20.99524,-21 20.99524,-21 0.77733,-0.933 2.33281,0 2.33281,1.4 z m -72.70685,19.6 H 43.563828 v -4.667 H 41.89754 v 4.667 h -3.054308 v 14 h 3.055141 v 4.666 h 1.666289 v -4.666 h 6.942592 c 1.555481,-5.6 5.053854,-10.733 8.941306,-14 z"
         id="path3035" />
      <rect
         y="73.542305"
         x="134.80772"
         height="8.1822357"
         width="15.657365"
         id="rect3236"
         style="fill:#ff6600" />
      <rect
         transform="matrix(0.8660254,-0.5,0.5,0.8660254,0,0)"
         y="121.21106"
         x="84.238785"
         height="8.1822357"
         width="15.657365"
         id="rect3236-0"
         style="fill:#ff6600" />
      <rect
         transform="matrix(0.8660254,0.5,-0.5,0.8660254,0,0)"
         y="5.7616782"
         x="161.68733"
         height="8.1822357"
         width="15.657365"
         id="rect3236-9"
         style="fill:#ff6600" />
    </g>
  </g>
</svg>
