<?xml version="1.0" encoding="UTF-8" standalone="no"?>
<!-- Created with Inkscape (http://www.inkscape.org/) -->

<svg
   xmlns:dc="http://purl.org/dc/elements/1.1/"
   xmlns:cc="http://creativecommons.org/ns#"
   xmlns:rdf="http://www.w3.org/1999/02/22-rdf-syntax-ns#"
   xmlns:svg="http://www.w3.org/2000/svg"
   xmlns="http://www.w3.org/2000/svg"
   xmlns:sodipodi="http://sodipodi.sourceforge.net/DTD/sodipodi-0.dtd"
   xmlns:inkscape="http://www.inkscape.org/namespaces/inkscape"
   width="112"
   height="68.04155"
   id="svg2"
   version="1.1"
   inkscape:version="0.48.5 r10040"
   sodipodi:docname="New document 1">
  <defs
     id="defs4" />
  <sodipodi:namedview
     id="base"
     pagecolor="#ffffff"
     bordercolor="#666666"
     borderopacity="1.0"
     inkscape:pageopacity="0.0"
     inkscape:pageshadow="2"
     inkscape:zoom="1.979899"
     inkscape:cx="31.692991"
     inkscape:cy="44.848304"
     inkscape:document-units="px"
     inkscape:current-layer="layer1"
     showgrid="false"
     fit-margin-top="0"
     fit-margin-left="0"
     fit-margin-right="0"
     fit-margin-bottom="0"
     inkscape:window-width="1920"
     inkscape:window-height="1018"
     inkscape:window-x="-8"
     inkscape:window-y="-8"
     inkscape:window-maximized="1" />
  <metadata
     id="metadata7">
    <rdf:RDF>
      <cc:Work
         rdf:about="">
        <dc:format>image/svg+xml</dc:format>
        <dc:type
           rdf:resource="http://purl.org/dc/dcmitype/StillImage" />
        <dc:title></dc:title>
      </cc:Work>
    </rdf:RDF>
  </metadata>
  <g
     inkscape:label="Layer 1"
     inkscape:groupmode="layer"
     id="layer1"
     transform="translate(-38.843232,-47.977668)">
    <path
       id="path3035"
       d="m 150.84323,49.753218 v 53.200002 c 0,1.4 -1.867,2.333 -2.8,1.4 0,0 -11.2,-21.000002 -25.2,-21.000002 -14,0 -44.332998,0 -44.332998,0 -6.534,0 -11.667,5.133 -11.667,11.666 0,6.533002 5.133,11.666002 11.667,11.666002 h 24.266998 c 6.066,0 10.732,-4.666 10.732,-10.731002 v -7.935 h 8.867 v 7.935 c 0,11.198002 -8.867,20.065002 -20.066,20.065002 H 80.376232 c -12.6,0 -22.867,-10.267 -22.867,-23.334002 v -0.465 c 0,-12.601 10.268,-22.867 22.867,-22.867 0,0 28.466998,0 42.466998,0 14,0 25.2,-21 25.2,-21 0.933,-0.933 2.8,0 2.8,1.4 z m -87.267998,19.6 h -19.066 v -4.667 h -2 v 4.667 h -3.666 v 14 h 3.667 v 4.666 h 2 v -4.666 h 8.333 c 1.867,-5.6 6.066,-10.733 10.732,-14 z"
       inkscape:connector-curvature="0"
       style="fill:#ff6600" />
  </g>
</svg>
