<?xml version="1.0" encoding="UTF-8" standalone="no"?>
<!-- Generator: Adobe Illustrator 16.0.0, SVG Export Plug-In . SVG Version: 6.00 Build 0)  -->

<svg
   xmlns:dc="http://purl.org/dc/elements/1.1/"
   xmlns:cc="http://creativecommons.org/ns#"
   xmlns:rdf="http://www.w3.org/1999/02/22-rdf-syntax-ns#"
   xmlns:svg="http://www.w3.org/2000/svg"
   xmlns="http://www.w3.org/2000/svg"
   xmlns:sodipodi="http://sodipodi.sourceforge.net/DTD/sodipodi-0.dtd"
   xmlns:inkscape="http://www.inkscape.org/namespaces/inkscape"
   version="1.1"
   id="Layer_1"
   x="0px"
   y="0px"
   width="32.040642"
   height="28.563679"
   viewBox="0 0 32.040642 28.563679"
   enable-background="new 0 0 50 50"
   xml:space="preserve"
   inkscape:version="0.48.5 r10040"
   sodipodi:docname="speed_low.svg"><metadata
   id="metadata3051"><rdf:RDF><cc:Work
       rdf:about=""><dc:format>image/svg+xml</dc:format><dc:type
         rdf:resource="http://purl.org/dc/dcmitype/StillImage" /></cc:Work></rdf:RDF></metadata><defs
   id="defs3049" /><sodipodi:namedview
   pagecolor="#ffffff"
   bordercolor="#666666"
   borderopacity="1"
   objecttolerance="10"
   gridtolerance="10"
   guidetolerance="10"
   inkscape:pageopacity="0"
   inkscape:pageshadow="2"
   inkscape:window-width="1920"
   inkscape:window-height="1018"
   id="namedview3047"
   showgrid="false"
   fit-margin-top="0"
   fit-margin-left="0"
   fit-margin-right="0"
   fit-margin-bottom="0"
   inkscape:zoom="4.72"
   inkscape:cx="12.313139"
   inkscape:cy="14.282047"
   inkscape:window-x="-8"
   inkscape:window-y="-8"
   inkscape:window-maximized="1"
   inkscape:current-layer="Layer_1" />
<g
   id="g3039"
   transform="matrix(1,0,0,1.69,-8.9792345,-27.968511)">
	<path
   d="m 40.822,24.038 c -0.264,-0.265 -0.689,-0.265 -0.953,0 -0.228,0.228 -0.246,0.573 -0.079,0.834 l -3.007,3.008 c -0.089,-0.061 -0.187,-0.106 -0.279,-0.158 l 0.904,-3.372 c 0.309,0.014 0.6,-0.176 0.682,-0.485 0.099,-0.36 -0.115,-0.729 -0.476,-0.825 -0.36,-0.098 -0.729,0.116 -0.825,0.477 -0.083,0.311 0.073,0.619 0.35,0.762 l -0.887,3.307 c -0.371,-0.164 -0.779,-0.263 -1.207,-0.287 -3.048,-0.168 -2.584,3.01 -3.806,3.009 -0.285,0 -1.716,-0.646 -1.716,-0.646 l -0.982,0.201 c -3.418,0.497 -6.636,-1.889 -6.76,-1.98 l -0.39,-0.296 c 0,0 -0.661,1.275 -1.829,1.912 -0.865,0.47 -1.861,0.567 -2.545,0.567 -1.251,0 -2.832,-0.348 -3.539,-1.128 -0.111,-0.123 -0.199,-0.256 -0.301,-0.383 -3.606,1.845 -5.085,4.896 -3.663,4.896 2.315,0 25.53,0 25.53,0 1.698,0 3.075,-1.378 3.075,-3.076 0,-0.951 -0.441,-1.762 -1.119,-2.317 l 2.986,-2.987 c 0.261,0.169 0.606,0.149 0.835,-0.078 0.265,-0.265 0.265,-0.692 0.001,-0.955 z m -6.132,5.868 c -0.372,0 -0.674,-0.302 -0.674,-0.674 0,-0.372 0.302,-0.674 0.674,-0.674 0.372,0 0.674,0.302 0.674,0.674 0,0.372 -0.301,0.674 -0.674,0.674 z"
   id="path3041"
   inkscape:connector-curvature="0" />
	<path
   d="m 19.239,28.905 c 2.863,-1.558 1.811,-7.369 -1.684,-5.348 3.494,-2.905 4.963,2.837 4.633,3.785 0,0 3.071,2.32 6.253,1.852 0,-4.032 -1.423,-10.615 -7.265,-12.289 -7.789,-2.231 -11.747,6.568 -7.199,11.579 0.768,0.846 3.604,1.324 5.262,0.421 z"
   id="path3043"
   inkscape:connector-curvature="0" />
</g>
<g
   id="Ribbon_6"
   transform="translate(-8.9792345,-10.718368)">
	<g
   id="Regal_Vector_Pack_02">
	</g>
</g>
</svg>