<?xml version="1.0" encoding="UTF-8" standalone="no"?>
<!-- Generator: Adobe Illustrator 16.0.0, SVG Export Plug-In . SVG Version: 6.00 Build 0)  -->

<svg
   xmlns:dc="http://purl.org/dc/elements/1.1/"
   xmlns:cc="http://creativecommons.org/ns#"
   xmlns:rdf="http://www.w3.org/1999/02/22-rdf-syntax-ns#"
   xmlns:svg="http://www.w3.org/2000/svg"
   xmlns="http://www.w3.org/2000/svg"
   xmlns:sodipodi="http://sodipodi.sourceforge.net/DTD/sodipodi-0.dtd"
   xmlns:inkscape="http://www.inkscape.org/namespaces/inkscape"
   version="1.1"
   id="Layer_1"
   x="0px"
   y="0px"
   width="64.033005"
   height="56.648808"
   viewBox="0 0 64.033005 56.648808"
   enable-background="new 0 0 64 64"
   xml:space="preserve"
   inkscape:version="0.48.5 r10040"
   sodipodi:docname="speed_high.svg"><metadata
   id="metadata3009"><rdf:RDF><cc:Work
       rdf:about=""><dc:format>image/svg+xml</dc:format><dc:type
         rdf:resource="http://purl.org/dc/dcmitype/StillImage" /></cc:Work></rdf:RDF></metadata><defs
   id="defs3007" /><sodipodi:namedview
   pagecolor="#ffffff"
   bordercolor="#666666"
   borderopacity="1"
   objecttolerance="10"
   gridtolerance="10"
   guidetolerance="10"
   inkscape:pageopacity="0"
   inkscape:pageshadow="2"
   inkscape:window-width="1920"
   inkscape:window-height="1018"
   id="namedview3005"
   showgrid="false"
   fit-margin-top="0"
   fit-margin-left="0"
   fit-margin-right="0"
   fit-margin-bottom="0"
   inkscape:zoom="3.6875"
   inkscape:cx="32"
   inkscape:cy="25.160792"
   inkscape:window-x="-8"
   inkscape:window-y="-8"
   inkscape:window-maximized="1"
   inkscape:current-layer="Layer_1" />
<g
   id="g2999"
   transform="translate(0,-0.5119834)">
	<g
   id="g3001">
		<path
   d="M 59.043,17.66 C 57.207,14.994 54.326,11.591 51.086,11.872 50.494,10.974 48.688,8.088 47.114,5.219 45.409,1.899 41.882,-0.854 40.63,1.243 40.461,1.678 40.386,2.861 42.012,6.572 40.814,4.567 39.456,2.601 37.762,1.968 35.643,1.17 34.197,2.271 36.444,6.749 c 3.393,8.311 3.947,10.829 3.839,11.851 -0.067,0.611 -0.511,1.265 -1.394,0.724 -3.183,-1.539 -10.501,-3.046 -13.229,-3.046 -12.551,0 -16.102,8.166 -18.012,12.555 0,0 -1.689,4.334 -1.764,12.112 C 4.342,39.466 2.812,37.498 1.832,37.498 0.616,37.498 0,38.548 0,40.617 c 0,2.069 2.381,6.108 5.45,8.213 0.647,0.465 1.432,0.459 2.237,-0.016 0.282,-0.172 0.452,-0.235 0.537,-0.259 1.458,1.357 2.686,2.404 3.649,3.111 2.959,3.98 2.435,3.358 16.514,5.487 0,0 2.149,0.202 2.987,-1.451 0.625,-1.828 -0.266,-3.016 -1.672,-4 -0.383,-0.279 -1.494,-0.921 -1.941,-1.111 7.456,0.822 13.116,1.713 13.978,2.196 0.967,2.248 2.968,3.586 5.972,3.985 1.414,0 2.394,-0.546 2.896,-1.626 0.987,-1.948 -1.739,-3.648 -3.22,-4.745 -1.323,-0.936 -1.974,-2.535 -1.912,-2.844 0.009,-0.031 0.021,-0.077 0.112,-0.129 2.148,-1.173 4.095,-3.03 5.779,-5.52 1.55,-2.289 2.405,-4.578 2.541,-6.812 1.954,-0.126 4.63,-1.63 6.552,-2.879 2.373,-1.542 3.574,-3.36 3.574,-5.402 0.003,-2.907 -2.334,-5.294 -4.99,-9.155 z m -6.708,3.329 c -0.905,0 -1.644,-0.737 -1.644,-1.645 0,-0.906 0.738,-1.643 1.644,-1.643 0.907,0 1.643,0.737 1.643,1.643 0,0.907 -0.736,1.645 -1.643,1.645 z"
   id="path3003"
   inkscape:connector-curvature="0" />
	</g>
</g>
</svg>