<?xml version="1.0" encoding="UTF-8" standalone="no"?>
<!-- Created with Inkscape (http://www.inkscape.org/) -->

<svg
   xmlns:dc="http://purl.org/dc/elements/1.1/"
   xmlns:cc="http://creativecommons.org/ns#"
   xmlns:rdf="http://www.w3.org/1999/02/22-rdf-syntax-ns#"
   xmlns:svg="http://www.w3.org/2000/svg"
   xmlns="http://www.w3.org/2000/svg"
   xmlns:sodipodi="http://sodipodi.sourceforge.net/DTD/sodipodi-0.dtd"
   xmlns:inkscape="http://www.inkscape.org/namespaces/inkscape"
   width="31.274828"
   height="30.083286"
   id="svg3106"
   version="1.1"
   inkscape:version="0.48.5 r10040"
   sodipodi:docname="telescopic_boom_black.svg">
  <defs
     id="defs3108" />
  <sodipodi:namedview
     id="base"
     pagecolor="#ffffff"
     bordercolor="#666666"
     borderopacity="1.0"
     inkscape:pageopacity="0.0"
     inkscape:pageshadow="2"
     inkscape:zoom="45.254834"
     inkscape:cx="25.315172"
     inkscape:cy="24.941707"
     inkscape:document-units="px"
     inkscape:current-layer="g3138"
     showgrid="false"
     fit-margin-top="0"
     fit-margin-left="0"
     fit-margin-right="0"
     fit-margin-bottom="0"
     inkscape:window-width="1024"
     inkscape:window-height="577"
     inkscape:window-x="-8"
     inkscape:window-y="-8"
     inkscape:window-maximized="1"
     showguides="true"
     inkscape:guide-bbox="true" />
  <metadata
     id="metadata3111">
    <rdf:RDF>
      <cc:Work
         rdf:about="">
        <dc:format>image/svg+xml</dc:format>
        <dc:type
           rdf:resource="http://purl.org/dc/dcmitype/StillImage" />
        <dc:title></dc:title>
      </cc:Work>
    </rdf:RDF>
  </metadata>
  <g
     inkscape:label="Telescopic Boom Black"
     inkscape:groupmode="layer"
     id="layer1"
     transform="translate(-90.595172,-682.30475)"
     style="display:none">
    <g
       id="g3115"
       transform="translate(73.680857,666.62204)">
      <path
         id="path3117"
         d="m 18.803315,42.026 5.042143,0 0.118,-10.499429 c -0.763,-0.428 -1.283,-1.235 -1.283,-2.171 0,-1.38 1.119,-2.5 2.5,-2.5 0.182,0 0.358,0.022 0.529,0.059 l 7.286857,-7.807857 c -0.114,-0.287 -0.182,-0.597 -0.182,-0.924 0,-1.38 1.119,-2.5 2.5,-2.5 1.025,0 1.904,0.619 2.29,1.502 l 9.378,0 c 1.462627,0 1.824991,1.995 -0.213,1.995 l -9.164,0 c -0.386,0.884 -1.265,1.502 -2.29,1.502 -0.318,0 -0.621,-0.065 -0.9,-0.174 l -7.079857,7.600857 c 0.214,0.368 0.345,0.791 0.345,1.247 0,1.107 -0.725,2.035 -1.722,2.364 l -0.118,10.307429 0.042,0 6.320357,0 c 1.043,0 1.889,0.826 1.889,1.869 0,1.044 -0.846,1.87 -1.889,1.87 l -13.3985,0 c -1.043,0 -1.89,-0.826 -1.89,-1.87 0,-1.044 0.847,-1.87 1.889,-1.87 z"
         inkscape:connector-curvature="0"
         sodipodi:nodetypes="sccssccsscsscsccscccssssss" />
    </g>
  </g>
  <g
     transform="translate(-90.595172,-682.30475)"
     id="g3136"
     inkscape:groupmode="layer"
     inkscape:label="Telescopic Boom White"
     style="display:inline">
    <g
       transform="translate(73.680857,666.62204)"
       id="g3138">
      <path
         sodipodi:nodetypes="sccssccsscsscsccscccssssss"
         inkscape:connector-curvature="0"
         d="m 18.803315,42.026 5.042143,0 0.118,-10.499429 c -0.763,-0.428 -1.283,-1.235 -1.283,-2.171 0,-1.38 1.119,-2.5 2.5,-2.5 0.182,0 0.358,0.022 0.529,0.059 l 7.286857,-7.807857 c -0.114,-0.287 -0.182,-0.597 -0.182,-0.924 0,-1.38 1.119,-2.5 2.5,-2.5 1.025,0 1.904,0.619 2.29,1.502 l 9.378,0 c 1.462627,0 1.824991,1.995 -0.213,1.995 l -9.164,0 c -0.386,0.884 -1.265,1.502 -2.29,1.502 -0.318,0 -0.621,-0.065 -0.9,-0.174 l -7.079857,7.600857 c 0.214,0.368 0.345,0.791 0.345,1.247 0,1.107 -0.725,2.035 -1.722,2.364 l -0.118,10.307429 0.042,0 6.320357,0 c 1.043,0 1.889,0.826 1.889,1.869 0,1.044 -0.846,1.87 -1.889,1.87 l -13.3985,0 c -1.043,0 -1.89,-0.826 -1.89,-1.87 0,-1.044 0.847,-1.87 1.889,-1.87 z"
         id="path3140" />
      <path
         style="fill:#ffffff"
         d="m 37.628601,17.507067 9.53125,0 0,1.361607 -9.53125,0 z"
         id="rect3168"
         inkscape:connector-curvature="0"
         sodipodi:nodetypes="ccccc" />
      <path
         style="font-size:medium;font-style:normal;font-variant:normal;font-weight:normal;font-stretch:normal;text-indent:0;text-align:start;text-decoration:none;line-height:normal;letter-spacing:normal;word-spacing:normal;text-transform:none;direction:ltr;block-progression:tb;writing-mode:lr-tb;text-anchor:start;baseline-shift:baseline;color:#000000;fill:#ffffff;fill-opacity:1;stroke:none;stroke-width:1px;marker:none;visibility:visible;display:inline;overflow:visible;enable-background:accumulate;font-family:Sans;-inkscape-font-specification:Sans"
         d="m 47.157832,17.503182 -0.0044,1.367107 c 0,0 1.412229,-0.567031 0.261879,-1.250523"
         id="path3173"
         inkscape:connector-curvature="0"
         sodipodi:nodetypes="ccc" />
    </g>
  </g>
</svg>
