<?xml version="1.0" encoding="UTF-8" standalone="no"?>
<!-- Created with Inkscape (http://www.inkscape.org/) -->

<svg
   xmlns:dc="http://purl.org/dc/elements/1.1/"
   xmlns:cc="http://creativecommons.org/ns#"
   xmlns:rdf="http://www.w3.org/1999/02/22-rdf-syntax-ns#"
   xmlns:svg="http://www.w3.org/2000/svg"
   xmlns="http://www.w3.org/2000/svg"
   xmlns:sodipodi="http://sodipodi.sourceforge.net/DTD/sodipodi-0.dtd"
   xmlns:inkscape="http://www.inkscape.org/namespaces/inkscape"
   width="31.274828"
   height="30.083286"
   id="svg3106"
   version="1.1"
   inkscape:version="0.48.5 r10040"
   sodipodi:docname="derrick_white.svg">
  <defs
     id="defs3108" />
  <sodipodi:namedview
     id="base"
     pagecolor="#ffffff"
     bordercolor="#666666"
     borderopacity="1.0"
     inkscape:pageopacity="0.0"
     inkscape:pageshadow="2"
     inkscape:zoom="11.2"
     inkscape:cx="23.525045"
     inkscape:cy="16.297213"
     inkscape:document-units="px"
     inkscape:current-layer="layer1"
     showgrid="false"
     fit-margin-top="0"
     fit-margin-left="0"
     fit-margin-right="0"
     fit-margin-bottom="0"
     inkscape:window-width="1024"
     inkscape:window-height="577"
     inkscape:window-x="-8"
     inkscape:window-y="-8"
     inkscape:window-maximized="1" />
  <metadata
     id="metadata3111">
    <rdf:RDF>
      <cc:Work
         rdf:about="">
        <dc:format>image/svg+xml</dc:format>
        <dc:type
           rdf:resource="http://purl.org/dc/dcmitype/StillImage" />
        <dc:title></dc:title>
      </cc:Work>
    </rdf:RDF>
  </metadata>
  <g
     inkscape:label="Telescopic Boom Black"
     inkscape:groupmode="layer"
     id="layer1"
     transform="translate(-90.595172,-682.30475)"
     style="display:inline">
    <g
       id="g3115"
       transform="translate(73.680857,666.62204)">
      <path
         id="path3117"
         d="m 18.803315,42.026 5.042143,0 0.118,-10.499429 c -0.763,-0.428 -1.283,-1.235 -1.283,-2.171 0,-1.38 1.119,-2.5 2.5,-2.5 0.182,0 0.358,0.022 0.529,0.059 l 7.286857,-7.807857 c -0.114,-0.287 -0.182,-0.597 -0.182,-0.924 0,-1.38 1.119,-2.5 2.5,-2.5 1.025,0 1.904,0.619 2.29,1.502 l 9.378,0 c 1.462627,0 1.824991,1.995 -0.213,1.995 l -9.164,0 c -0.386,0.884 -1.265,1.502 -2.29,1.502 -0.318,0 -0.621,-0.065 -0.9,-0.174 l -7.079857,7.600857 c 0.214,0.368 0.345,0.791 0.345,1.247 0,1.107 -0.725,2.035 -1.722,2.364 l -0.118,10.307429 0.042,0 6.320357,0 c 1.043,0 1.889,0.826 1.889,1.869 0,1.044 -0.846,1.87 -1.889,1.87 l -13.3985,0 c -1.043,0 -1.89,-0.826 -1.89,-1.87 0,-1.044 0.847,-1.87 1.889,-1.87 z"
         inkscape:connector-curvature="0"
         sodipodi:nodetypes="sccssccsscsscsccscccssssss" />
    </g>
  </g>
  <g
     transform="translate(-90.595172,-682.30475)"
     id="g3136"
     inkscape:groupmode="layer"
     inkscape:label="Telescopic Boom White"
     style="display:none">
    <g
       transform="translate(73.680857,666.62204)"
       id="g3138">
      <path
         sodipodi:nodetypes="sccssccsscsscsccscccssssss"
         inkscape:connector-curvature="0"
         d="m 18.803315,42.026 5.042143,0 0.118,-10.499429 c -0.763,-0.428 -1.283,-1.235 -1.283,-2.171 0,-1.38 1.119,-2.5 2.5,-2.5 0.182,0 0.358,0.022 0.529,0.059 l 7.286857,-7.807857 c -0.114,-0.287 -0.182,-0.597 -0.182,-0.924 0,-1.38 1.119,-2.5 2.5,-2.5 1.025,0 1.904,0.619 2.29,1.502 l 9.378,0 c 1.462627,0 1.824991,1.995 -0.213,1.995 l -9.164,0 c -0.386,0.884 -1.265,1.502 -2.29,1.502 -0.318,0 -0.621,-0.065 -0.9,-0.174 l -7.079857,7.600857 c 0.214,0.368 0.345,0.791 0.345,1.247 0,1.107 -0.725,2.035 -1.722,2.364 l -0.118,10.307429 0.042,0 6.320357,0 c 1.043,0 1.889,0.826 1.889,1.869 0,1.044 -0.846,1.87 -1.889,1.87 l -13.3985,0 c -1.043,0 -1.89,-0.826 -1.89,-1.87 0,-1.044 0.847,-1.87 1.889,-1.87 z"
         id="path3140" />
      <path
         sodipodi:type="arc"
         style="fill:#ffffff"
         id="path3142"
         sodipodi:cx="6.3839288"
         sodipodi:cy="9.1011438"
         sodipodi:rx="2.3660715"
         sodipodi:ry="2.1428571"
         d="m 8.7500002,9.1011438 a 2.3660715,2.1428571 0 1 1 -4.7321429,0 2.3660715,2.1428571 0 1 1 4.7321429,0 z"
         transform="matrix(0.8018868,0,0,0.84374999,20.12102,21.680656)" />
    </g>
  </g>
</svg>
