<?xml version="1.0" encoding="UTF-8" standalone="no"?>
<!-- Created with Inkscape (http://www.inkscape.org/) -->

<svg
   xmlns:dc="http://purl.org/dc/elements/1.1/"
   xmlns:cc="http://creativecommons.org/ns#"
   xmlns:rdf="http://www.w3.org/1999/02/22-rdf-syntax-ns#"
   xmlns:svg="http://www.w3.org/2000/svg"
   xmlns="http://www.w3.org/2000/svg"
   xmlns:sodipodi="http://sodipodi.sourceforge.net/DTD/sodipodi-0.dtd"
   xmlns:inkscape="http://www.inkscape.org/namespaces/inkscape"
   width="603.11566"
   height="573.70001"
   id="svg2"
   version="1.1"
   inkscape:version="0.48.5 r10040"
   sodipodi:docname="temperature_high.svg">
  <defs
     id="defs4" />
  <sodipodi:namedview
     id="base"
     pagecolor="#ffffff"
     bordercolor="#666666"
     borderopacity="1.0"
     inkscape:pageopacity="0.0"
     inkscape:pageshadow="2"
     inkscape:zoom="0.49497474"
     inkscape:cx="272.94494"
     inkscape:cy="272.81246"
     inkscape:document-units="px"
     inkscape:current-layer="g3119"
     showgrid="false"
     fit-margin-top="0"
     fit-margin-left="0"
     fit-margin-right="0"
     fit-margin-bottom="0"
     inkscape:window-width="1024"
     inkscape:window-height="577"
     inkscape:window-x="-8"
     inkscape:window-y="-8"
     inkscape:window-maximized="1" />
  <metadata
     id="metadata7">
    <rdf:RDF>
      <cc:Work
         rdf:about="">
        <dc:format>image/svg+xml</dc:format>
        <dc:type
           rdf:resource="http://purl.org/dc/dcmitype/StillImage" />
        <dc:title></dc:title>
      </cc:Work>
    </rdf:RDF>
  </metadata>
  <g
     inkscape:label="Normal"
     inkscape:groupmode="layer"
     id="layer1"
     transform="translate(-107.28435,-65.790661)"
     style="display:none">
    <g
       id="g3049"
       transform="translate(194,-112.10925)">
      <path
         id="path3051"
         d="m 172.1,204.8 c -42.1,0 -76.5,34.4 -76.5,76.5 0,42.1 34.4,76.5 76.5,76.5 42.1,0 76.5,-34.4 76.5,-76.5 0,-42.1 -34.4,-76.5 -76.5,-76.5 z m 0,133.8 c -32.5,0 -57.4,-24.9 -57.4,-57.4 0,-32.5 24.9,-57.4 57.4,-57.4 32.5,0 57.4,24.9 57.4,57.4 0,32.5 -24.9,57.4 -57.4,57.4 z"
         inkscape:connector-curvature="0" />
      <path
         id="path3053"
         d="m 506.8,319.5 c 5.7,0 9.6,-3.8 9.6,-9.6 v -9.6 c 0,-53.5 -42.1,-95.6 -95.6,-95.6 h -38.2 c -53.5,0 -95.6,42.1 -95.6,95.6 v 191.2 c 0,53.5 42.1,95.6 95.6,95.6 h 38.2 c 53.5,0 95.6,-42.1 95.6,-95.6 v -9.6 c 0,-5.7 -3.8,-9.6 -9.6,-9.6 -5.8,0 -9.6,3.8 -9.6,9.6 v 9.6 c 0,42.1 -34.4,76.5 -76.5,76.5 H 382.5 C 340.4,568 306,533.6 306,491.5 V 300.4 c 0,-42.1 34.4,-76.5 76.5,-76.5 h 38.2 c 42.1,0 76.5,34.4 76.5,76.5 v 9.6 c 0,5.7 3.9,9.5 9.6,9.5 z"
         inkscape:connector-curvature="0" />
    </g>
    <g
       id="g3503"
       transform="translate(-116.24509,-42.691504)">
      <g
         id="g3018"
         transform="translate(13.129441,-0.61783513)">
	
	<path
   id="path3022"
   d="M 363.4,510.8 V 166.5 c 0,-32.5 -24.9,-57.4 -57.4,-57.4 -32.5,0 -57.4,26.8 -57.4,57.4 v 344.2 c -23,17.2 -38.2,45.9 -38.2,76.5 0,53.5 42.1,95.6 95.6,95.6 53.5,0 95.6,-42.1 95.6,-95.6 0,-30.6 -15.3,-59.2 -38.2,-76.4 z m -57.4,153 c -42.1,0 -76.5,-34.4 -76.5,-76.5 0,-28.7 15.3,-53.5 38.2,-66.9 V 166.5 c 0,-21 17.2,-38.2 38.2,-38.2 21,0 38.2,17.2 38.2,38.2 v 353.8 c 23,13.4 38.2,38.2 38.2,66.9 0.2,42.1 -34.2,76.6 -76.3,76.6 z"
   inkscape:connector-curvature="0" />

</g>
      <g
         id="g3038"
         transform="translate(13.471804,-2.2320394)">
	<path
   id="path3040"
   d="M 363.4,510.8 V 166.5 c 0,-32.5 -24.9,-57.4 -57.4,-57.4 -32.5,0 -57.4,26.8 -57.4,57.4 v 344.2 c -23,17.2 -38.2,45.9 -38.2,76.5 0,53.5 42.1,95.6 95.6,95.6 53.5,0 95.6,-42.1 95.6,-95.6 0,-30.6 -15.3,-59.2 -38.2,-76.4 z m -57.4,153 c -42.1,0 -76.5,-34.4 -76.5,-76.5 0,-28.7 15.3,-53.5 38.2,-66.9 V 166.5 c 0,-21 17.2,-38.2 38.2,-38.2 21,0 38.2,17.2 38.2,38.2 v 353.8 c 23,13.4 38.2,38.2 38.2,66.9 0.2,42.1 -34.2,76.6 -76.3,76.6 z"
   inkscape:connector-curvature="0" />

	<path
   id="path3042"
   d="m 325.1,533.7 c 0,-1.9 0,-1.9 0,-3.8 v -95.6 c 0,-11.5 -7.6,-19.1 -19.1,-19.1 -11.5,0 -19.1,7.6 -19.1,19.1 v 95.6 c 0,1.9 0,1.9 0,3.8 -23,7.7 -38.2,28.7 -38.2,53.5 0,32.5 24.9,57.4 57.4,57.4 32.5,0 57.4,-24.9 57.4,-57.4 -0.1,-24.8 -15.4,-45.8 -38.4,-53.5 z"
   inkscape:connector-curvature="0" />

</g>
    </g>
    <g
       transform="translate(-116.24509,-42.691504)"
       id="g3053">
      <g
         transform="translate(13.129441,-0.61783513)"
         id="g3055">
	
	<path
   inkscape:connector-curvature="0"
   d="M 363.4,510.8 V 166.5 c 0,-32.5 -24.9,-57.4 -57.4,-57.4 -32.5,0 -57.4,26.8 -57.4,57.4 v 344.2 c -23,17.2 -38.2,45.9 -38.2,76.5 0,53.5 42.1,95.6 95.6,95.6 53.5,0 95.6,-42.1 95.6,-95.6 0,-30.6 -15.3,-59.2 -38.2,-76.4 z m -57.4,153 c -42.1,0 -76.5,-34.4 -76.5,-76.5 0,-28.7 15.3,-53.5 38.2,-66.9 V 166.5 c 0,-21 17.2,-38.2 38.2,-38.2 21,0 38.2,17.2 38.2,38.2 v 353.8 c 23,13.4 38.2,38.2 38.2,66.9 0.2,42.1 -34.2,76.6 -76.3,76.6 z"
   id="path3059" />

</g>
      <g
         transform="translate(13.471804,-2.2320394)"
         id="g3061">
	<path
   inkscape:connector-curvature="0"
   d="M 363.4,510.8 V 166.5 c 0,-32.5 -24.9,-57.4 -57.4,-57.4 -32.5,0 -57.4,26.8 -57.4,57.4 v 344.2 c -23,17.2 -38.2,45.9 -38.2,76.5 0,53.5 42.1,95.6 95.6,95.6 53.5,0 95.6,-42.1 95.6,-95.6 0,-30.6 -15.3,-59.2 -38.2,-76.4 z m -57.4,153 c -42.1,0 -76.5,-34.4 -76.5,-76.5 0,-28.7 15.3,-53.5 38.2,-66.9 V 166.5 c 0,-21 17.2,-38.2 38.2,-38.2 21,0 38.2,17.2 38.2,38.2 v 353.8 c 23,13.4 38.2,38.2 38.2,66.9 0.2,42.1 -34.2,76.6 -76.3,76.6 z"
   id="path3063" />

	<path
   inkscape:connector-curvature="0"
   d="m 325.1,533.7 c 0,-1.9 0,-1.9 0,-3.8 v -95.6 c 0,-11.5 -7.6,-19.1 -19.1,-19.1 -11.5,0 -19.1,7.6 -19.1,19.1 v 95.6 c 0,1.9 0,1.9 0,3.8 -23,7.7 -38.2,28.7 -38.2,53.5 0,32.5 24.9,57.4 57.4,57.4 32.5,0 57.4,-24.9 57.4,-57.4 -0.1,-24.8 -15.4,-45.8 -38.4,-53.5 z"
   id="path3065" />

</g>
    </g>
  </g>
  <g
     transform="translate(-107.28435,-65.790661)"
     id="g3067"
     inkscape:groupmode="layer"
     inkscape:label="High_Red"
     style="display:none">
    <g
       transform="translate(-116.24509,-42.691504)"
       id="g3075">
      <g
         transform="translate(13.129441,-0.61783513)"
         id="g3077">
	
	<g
   id="g3106">
  <g
     id="g3069"
     transform="translate(297.11565,-68.799915)"
     style="display:inline">
    <path
       id="path3071"
       d="m 172.1,204.8 c -42.1,0 -76.5,34.4 -76.5,76.5 0,42.1 34.4,76.5 76.5,76.5 42.1,0 76.5,-34.4 76.5,-76.5 0,-42.1 -34.4,-76.5 -76.5,-76.5 z m 0,133.8 c -32.5,0 -57.4,-24.9 -57.4,-57.4 0,-32.5 24.9,-57.4 57.4,-57.4 32.5,0 57.4,24.9 57.4,57.4 0,32.5 -24.9,57.4 -57.4,57.4 z"
       inkscape:connector-curvature="0" />
    <path
       id="path3073"
       d="m 506.8,319.5 c 5.7,0 9.6,-3.8 9.6,-9.6 v -9.6 c 0,-53.5 -42.1,-95.6 -95.6,-95.6 h -38.2 c -53.5,0 -95.6,42.1 -95.6,95.6 v 191.2 c 0,53.5 42.1,95.6 95.6,95.6 h 38.2 c 53.5,0 95.6,-42.1 95.6,-95.6 v -9.6 c 0,-5.7 -3.8,-9.6 -9.6,-9.6 -5.8,0 -9.6,3.8 -9.6,9.6 v 9.6 c 0,42.1 -34.4,76.5 -76.5,76.5 H 382.5 C 340.4,568 306,533.6 306,491.5 V 300.4 c 0,-42.1 34.4,-76.5 76.5,-76.5 h 38.2 c 42.1,0 76.5,34.4 76.5,76.5 v 9.6 c 0,5.7 3.9,9.5 9.6,9.5 z"
       inkscape:connector-curvature="0" />
  </g>
  <path
     style="fill:#ff0000"
     id="path3079"
     d="m 325.1,533.7 c 0,-1.9 0,-1.9 0,-3.8 V 166.5 c 0,-11.5 -7.6,-19.1 -19.1,-19.1 -11.5,0 -19.1,7.7 -19.1,19.1 v 363.4 c 0,1.9 0,1.9 0,3.8 -23,7.7 -38.2,28.7 -38.2,53.5 0,32.5 24.9,57.4 57.4,57.4 32.5,0 57.4,-24.9 57.4,-57.4 -0.1,-24.8 -15.4,-45.8 -38.4,-53.5 z"
     inkscape:connector-curvature="0" />
  <path
     id="path3081"
     d="M 363.4,510.8 V 166.5 c 0,-32.5 -24.9,-57.4 -57.4,-57.4 -32.5,0 -57.4,26.8 -57.4,57.4 v 344.2 c -23,17.2 -38.2,45.9 -38.2,76.5 0,53.5 42.1,95.6 95.6,95.6 53.5,0 95.6,-42.1 95.6,-95.6 0,-30.6 -15.3,-59.2 -38.2,-76.4 z m -57.4,153 c -42.1,0 -76.5,-34.4 -76.5,-76.5 0,-28.7 15.3,-53.5 38.2,-66.9 V 166.5 c 0,-21 17.2,-38.2 38.2,-38.2 21,0 38.2,17.2 38.2,38.2 v 353.8 c 23,13.4 38.2,38.2 38.2,66.9 0.2,42.1 -34.2,76.6 -76.3,76.6 z"
     inkscape:connector-curvature="0" />
</g>

</g>
    </g>
  </g>
  <g
     style="display:inline"
     inkscape:label="High_Empty"
     inkscape:groupmode="layer"
     id="g3113"
     transform="translate(-107.28435,-65.790661)">
    <g
       id="g3115"
       transform="translate(-116.24509,-42.691504)">
      <g
         id="g3117"
         transform="translate(13.129441,-0.61783513)">
	
	<g
   id="g3119">
  <g
     style="display:inline"
     transform="translate(297.11565,-68.799915)"
     id="g3121">
    <path
       inkscape:connector-curvature="0"
       d="m 172.1,204.8 c -42.1,0 -76.5,34.4 -76.5,76.5 0,42.1 34.4,76.5 76.5,76.5 42.1,0 76.5,-34.4 76.5,-76.5 0,-42.1 -34.4,-76.5 -76.5,-76.5 z m 0,133.8 c -32.5,0 -57.4,-24.9 -57.4,-57.4 0,-32.5 24.9,-57.4 57.4,-57.4 32.5,0 57.4,24.9 57.4,57.4 0,32.5 -24.9,57.4 -57.4,57.4 z"
       id="path3123" />
    <path
       inkscape:connector-curvature="0"
       d="m 506.8,319.5 c 5.7,0 9.6,-3.8 9.6,-9.6 v -9.6 c 0,-53.5 -42.1,-95.6 -95.6,-95.6 h -38.2 c -53.5,0 -95.6,42.1 -95.6,95.6 v 191.2 c 0,53.5 42.1,95.6 95.6,95.6 h 38.2 c 53.5,0 95.6,-42.1 95.6,-95.6 v -9.6 c 0,-5.7 -3.8,-9.6 -9.6,-9.6 -5.8,0 -9.6,3.8 -9.6,9.6 v 9.6 c 0,42.1 -34.4,76.5 -76.5,76.5 H 382.5 C 340.4,568 306,533.6 306,491.5 V 300.4 c 0,-42.1 34.4,-76.5 76.5,-76.5 h 38.2 c 42.1,0 76.5,34.4 76.5,76.5 v 9.6 c 0,5.7 3.9,9.5 9.6,9.5 z"
       id="path3125" />
  </g>
  <path
     inkscape:connector-curvature="0"
     d="M 363.4,510.8 V 166.5 c 0,-32.5 -24.9,-57.4 -57.4,-57.4 -32.5,0 -57.4,26.8 -57.4,57.4 v 344.2 c -23,17.2 -38.2,45.9 -38.2,76.5 0,53.5 42.1,95.6 95.6,95.6 53.5,0 95.6,-42.1 95.6,-95.6 0,-30.6 -15.3,-59.2 -38.2,-76.4 z m -57.4,153 c -42.1,0 -76.5,-34.4 -76.5,-76.5 0,-28.7 15.3,-53.5 38.2,-66.9 V 166.5 c 0,-21 17.2,-38.2 38.2,-38.2 21,0 38.2,17.2 38.2,38.2 v 353.8 c 23,13.4 38.2,38.2 38.2,66.9 0.2,42.1 -34.2,76.6 -76.3,76.6 z"
     id="path3129" />
</g>

</g>
    </g>
  </g>
</svg>
