<?xml version="1.0" encoding="UTF-8" standalone="no"?>
<!-- Created with Inkscape (http://www.inkscape.org/) -->

<svg
   xmlns:dc="http://purl.org/dc/elements/1.1/"
   xmlns:cc="http://creativecommons.org/ns#"
   xmlns:rdf="http://www.w3.org/1999/02/22-rdf-syntax-ns#"
   xmlns:svg="http://www.w3.org/2000/svg"
   xmlns="http://www.w3.org/2000/svg"
   xmlns:sodipodi="http://sodipodi.sourceforge.net/DTD/sodipodi-0.dtd"
   xmlns:inkscape="http://www.inkscape.org/namespaces/inkscape"
   width="405.07285"
   height="383.18124"
   id="svg2"
   version="1.1"
   inkscape:version="0.48.5 r10040"
   sodipodi:docname="warning_black.svg">
  <defs
     id="defs4" />
  <sodipodi:namedview
     id="base"
     pagecolor="#ffffff"
     bordercolor="#666666"
     borderopacity="1.0"
     inkscape:pageopacity="0.0"
     inkscape:pageshadow="2"
     inkscape:zoom="0.49497475"
     inkscape:cx="382.09787"
     inkscape:cy="133.50897"
     inkscape:document-units="px"
     inkscape:current-layer="g3505"
     showgrid="false"
     showguides="true"
     inkscape:guide-bbox="true"
     inkscape:snap-global="false"
     fit-margin-top="0"
     fit-margin-left="0"
     fit-margin-right="0"
     fit-margin-bottom="0"
     inkscape:window-width="1024"
     inkscape:window-height="577"
     inkscape:window-x="-8"
     inkscape:window-y="-8"
     inkscape:window-maximized="1">
    <inkscape:grid
       type="xygrid"
       id="grid3497"
       empspacing="5"
       visible="true"
       enabled="true"
       snapvisiblegridlinesonly="true"
       originx="-123.69083px"
       originy="-541.96476px" />
  </sodipodi:namedview>
  <metadata
     id="metadata7">
    <rdf:RDF>
      <cc:Work
         rdf:about="">
        <dc:format>image/svg+xml</dc:format>
        <dc:type
           rdf:resource="http://purl.org/dc/dcmitype/StillImage" />
        <dc:title></dc:title>
      </cc:Work>
    </rdf:RDF>
  </metadata>
  <g
     inkscape:label="Normal"
     inkscape:groupmode="layer"
     id="layer1"
     transform="translate(-123.69083,-127.21619)"
     style="display:inline">
    <path
       id="path3473"
       d="m 465.61067,346.46746 0,-96.496 c 24.999,-8.409 43.125,-31.77 43.125,-59.603 0,-34.878 -28.274,-63.152 -63.152,-63.152 -34.877,0 -63.152,28.274 -63.152,63.152 0,27.829 18.12,51.188 43.113,59.6 l 0,114.093 c 0,11.06 8.973,20.033 20.033,20.033 23.776,0 43.118,19.342 43.118,43.118 0,23.77596 -19.342,43.11796 -43.118,43.11796 -23.776,0 -43.118,-19.342 -43.118,-43.11796 0,-11.06 -8.973,-20.033 -20.033,-20.033 -11.06,0 -20.033,8.973 -20.033,20.033 0,45.86996 37.315,83.18496 83.185,83.18496 45.87,0 83.185,-37.315 83.185,-83.18496 -0.001,-38.97 -26.934,-71.758 -63.153,-80.745 z m -51.603,-156.099 c 0,-17.439 14.138,-31.576 31.576,-31.576 17.439,0 31.576,14.137 31.576,31.576 0,17.439 -14.137,31.577 -31.576,31.577 -17.438,0 -31.576,-14.138 -31.576,-31.577 z"
       inkscape:connector-curvature="0"
       sodipodi:nodetypes="ccssscssssssssccsssss" />
    <rect
       style="fill:#000000"
       id="rect3493"
       width="310.71396"
       height="31.443001"
       x="135.03572"
       y="127.21619" />
  </g>
  <g
     style="display:none"
     inkscape:label="Warning Black"
     inkscape:groupmode="layer"
     id="g3513"
     transform="translate(-123.69083,-127.21619)">
    <path
       style="fill:#000000"
       id="path3515"
       d="m 333.83612,375.94954 -92.34478,-173.03 c -2.30263,-4.32575 -6.81472,-7.04099 -11.72611,-7.04099 h -0.0133 c -4.91139,0 -9.41017,2.70193 -11.72611,7.02768 l -92.75739,173.03 c -2.20946,4.13941 -2.08967,9.11735 0.30613,13.12366 2.40911,3.993 6.74817,6.46866 11.41998,6.46866 H 322.0834 c 4.67181,0 9.01087,-2.44904 11.41998,-6.46866 2.40911,-4.00631 2.5289,-8.98425 0.33275,-13.11035 z m -104.0842,-7.04099 c -7.34712,0 -13.31,-5.96288 -13.31,-13.31 0,-7.34712 5.96288,-13.31 13.31,-13.31 7.33381,0 13.31,5.96288 13.31,13.31 0,7.34712 -5.97619,13.31 -13.31,13.31 z m 13.31,-53.02704 c 0,7.36043 -5.97619,13.31 -13.31,13.31 -7.34712,0 -13.31,-5.94957 -13.31,-13.31 v -53.24 c 0,-7.34712 5.96288,-13.31 13.31,-13.31 7.33381,0 13.31,5.96288 13.31,13.31 v 53.24 z"
       inkscape:connector-curvature="0" />
    <path
       id="path3517"
       d="m 465.61067,346.46746 0,-96.496 c 24.999,-8.409 43.125,-31.77 43.125,-59.603 0,-34.878 -28.274,-63.152 -63.152,-63.152 -34.877,0 -63.152,28.274 -63.152,63.152 0,27.829 18.12,51.188 43.113,59.6 l 0,114.093 c 0,11.06 8.973,20.033 20.033,20.033 23.776,0 43.118,19.342 43.118,43.118 0,23.77596 -19.342,43.11796 -43.118,43.11796 -23.776,0 -43.118,-19.342 -43.118,-43.11796 0,-11.06 -8.973,-20.033 -20.033,-20.033 -11.06,0 -20.033,8.973 -20.033,20.033 0,45.86996 37.315,83.18496 83.185,83.18496 45.87,0 83.185,-37.315 83.185,-83.18496 -0.001,-38.97 -26.934,-71.758 -63.153,-80.745 z m -51.603,-156.099 c 0,-17.439 14.138,-31.576 31.576,-31.576 17.439,0 31.576,14.137 31.576,31.576 0,17.439 -14.137,31.577 -31.576,31.577 -17.438,0 -31.576,-14.138 -31.576,-31.577 z"
       inkscape:connector-curvature="0"
       sodipodi:nodetypes="ccssscssssssssccsssss" />
    <rect
       style="fill:#000000"
       id="rect3519"
       width="310.71396"
       height="31.443001"
       x="135.03572"
       y="127.21619" />
  </g>
  <g
     transform="translate(-123.69083,-127.21619)"
     id="g3505"
     inkscape:groupmode="layer"
     inkscape:label="Warning Red"
     style="display:none">
    <path
       inkscape:connector-curvature="0"
       d="m 333.83612,375.94954 -92.34478,-173.03 c -2.30263,-4.32575 -6.81472,-7.04099 -11.72611,-7.04099 h -0.0133 c -4.91139,0 -9.41017,2.70193 -11.72611,7.02768 l -92.75739,173.03 c -2.20946,4.13941 -2.08967,9.11735 0.30613,13.12366 2.40911,3.993 6.74817,6.46866 11.41998,6.46866 H 322.0834 c 4.67181,0 9.01087,-2.44904 11.41998,-6.46866 2.40911,-4.00631 2.5289,-8.98425 0.33275,-13.11035 z m -104.0842,-7.04099 c -7.34712,0 -13.31,-5.96288 -13.31,-13.31 0,-7.34712 5.96288,-13.31 13.31,-13.31 7.33381,0 13.31,5.96288 13.31,13.31 0,7.34712 -5.97619,13.31 -13.31,13.31 z m 13.31,-53.02704 c 0,7.36043 -5.97619,13.31 -13.31,13.31 -7.34712,0 -13.31,-5.94957 -13.31,-13.31 v -53.24 c 0,-7.34712 5.96288,-13.31 13.31,-13.31 7.33381,0 13.31,5.96288 13.31,13.31 v 53.24 z"
       id="path3507"
       style="fill:#ff0000" />
    <path
       sodipodi:nodetypes="ccssscssssssssccsssss"
       inkscape:connector-curvature="0"
       d="m 465.61067,346.46746 0,-96.496 c 24.999,-8.409 43.125,-31.77 43.125,-59.603 0,-34.878 -28.274,-63.152 -63.152,-63.152 -34.877,0 -63.152,28.274 -63.152,63.152 0,27.829 18.12,51.188 43.113,59.6 l 0,114.093 c 0,11.06 8.973,20.033 20.033,20.033 23.776,0 43.118,19.342 43.118,43.118 0,23.77596 -19.342,43.11796 -43.118,43.11796 -23.776,0 -43.118,-19.342 -43.118,-43.11796 0,-11.06 -8.973,-20.033 -20.033,-20.033 -11.06,0 -20.033,8.973 -20.033,20.033 0,45.86996 37.315,83.18496 83.185,83.18496 45.87,0 83.185,-37.315 83.185,-83.18496 -0.001,-38.97 -26.934,-71.758 -63.153,-80.745 z m -51.603,-156.099 c 0,-17.439 14.138,-31.576 31.576,-31.576 17.439,0 31.576,14.137 31.576,31.576 0,17.439 -14.137,31.577 -31.576,31.577 -17.438,0 -31.576,-14.138 -31.576,-31.577 z"
       id="path3509" />
    <rect
       y="127.21619"
       x="135.03572"
       height="31.443001"
       width="310.71396"
       id="rect3511"
       style="fill:#000000" />
  </g>
</svg>
